<?xml version="1.0" encoding="utf-8"?>
<!-- Generator: Adobe Illustrator 15.0.0, SVG Export Plug-In . SVG Version: 6.00 Build 0)  -->
<!DOCTYPE svg PUBLIC "-//W3C//DTD SVG 1.1//EN" "http://www.w3.org/Graphics/SVG/1.1/DTD/svg11.dtd">
<svg version="1.1" id="レイヤー_1" xmlns="http://www.w3.org/2000/svg" xmlns:xlink="http://www.w3.org/1999/xlink" x="0px"
	 y="0px" width="200px" height="90px" viewBox="0 0 200 90" enable-background="new 0 0 200 90" xml:space="preserve">
<image overflow="visible" width="668" height="730" xlink:href="../leaf未加工/FREE Illustrated Plant Icon Pack/Illustrations/PNG/Warm/Plant Vector-Freebie_Warm 1.png"  transform="matrix(0.1073 0 0 0.0963 0 9.855)">
</image>
<g>
	<path fill="#536165" d="M62.948,67.42c5.25-0.111,10.196,1.426,10.196,2.85c0,0.385-0.272,0.607-0.64,0.607
		s-0.96-0.559-2.337-1.215c-1.761-0.914-4.514-1.553-7.251-1.857L62.948,67.42z M63.828,58.152c0.56-0.048,1.104-0.064,1.648-0.064
		c2.033,0,3.89,0.305,5.122,0.816c0.944,0.385,1.521,0.721,1.521,1.266c0,0.256-0.272,0.479-0.544,0.479
		c-0.32,0-0.816-0.319-1.489-0.672c-1.44-0.769-3.697-1.329-6.291-1.457L63.828,58.152z M64.068,62.65
		c0.224,0,0.432-0.016,0.656-0.016c4.114,0,6.899,1.232,6.899,2.129c0,0.303-0.288,0.496-0.64,0.496
		c-0.256,0-0.656-0.336-1.137-0.576c-1.408-0.77-3.729-1.426-5.842-1.648L64.068,62.65z"/>
	<path fill="#536165" d="M83.942,57.656c0-0.128,0.256-0.288,0.528-0.288c0.736,0,1.984,0.784,1.984,1.409
		c0,0.304-0.513,0.191-0.816,0.304c-0.736,0.239-1.648,0.448-2.48,0.656c0.271,0.176,0.512,0.399,0.512,0.56
		s-0.064,0.257-0.112,0.32c-0.08,0.112-0.08,0.24-0.111,0.561c-0.049,0.545-0.064,1.264-0.112,1.889
		c1.024-0.064,2.081-0.145,2.721-0.176c0.673-0.049,0.977-0.031,1.44-0.465c0.721,0.064,1.841,0.592,1.841,0.945
		c0,0.352-0.256,0.383-0.704,0.383c-0.32,0-1.248-0.078-1.809-0.111c-0.368-0.031-0.801-0.047-1.297-0.047
		c-0.656,0-1.393,0.031-2.225,0.08c-0.353,3.201-1.536,5.809-5.33,7.426l-0.24-0.305c3.025-1.68,4.226-4.113,4.498-7.043
		c-0.641,0.049-3.825,0.338-4.546,0.625c-0.32,0.111-0.464,0.256-0.672,0.256c-0.656,0-1.473-0.736-1.473-1.279
		c0-0.258,0.096-0.561,0.272-0.674l0.08,0.018c0.064,0.367,0.24,0.543,0.465,0.672c0.208,0.096,0.72,0.096,1.264,0.096
		c0.545,0,2.657-0.16,4.658-0.32c0.064-0.688,0.08-1.424,0.08-2.097c0-0.56,0-0.944-0.176-1.104
		c-1.649,0.352-3.81,0.704-5.715,0.832l-0.08-0.367c3.01-0.449,6.083-1.217,7.571-1.793c0.608-0.24,0.704-0.289,0.704-0.545
		c0-0.16-0.288-0.336-0.704-0.4L83.942,57.656z"/>
	<path fill="#536165" d="M91.123,64.955c2.897-2.32,4.434-5.778,4.434-6.707c0-0.496-0.72-0.543-0.896-0.543
		c0.112-0.273,0.368-0.48,0.849-0.48c0.641,0,1.841,0.656,1.841,1.072c0,0.191-0.192,0.24-0.353,0.384
		c-0.096,0.063-0.224,0.177-0.336,0.4c-0.208,0.513-0.544,1.104-0.88,1.648c0.72,0.063,3.249-0.208,4.226-0.353
		c0.32-0.047,0.448-0.16,0.56-0.287c0.129-0.145,0.24-0.272,0.368-0.272c0.32,0,1.393,0.8,1.393,1.072
		c0,0.192-0.191,0.24-0.416,0.353c-0.144,0.063-0.368,0.305-0.464,0.576c-1.408,3.938-3.938,7.314-8.916,9.219l-0.224-0.32
		c4.306-2.111,6.851-5.537,8.067-9.443c0.032-0.096,0.048-0.176,0.048-0.224c0-0.08-0.048-0.112-0.128-0.112
		c-0.624,0-3.521,0.609-3.954,0.609c-0.464,0-0.736-0.098-0.944-0.257c-0.944,1.409-2.225,2.897-4.018,3.954L91.123,64.955z"/>
	<path fill="#536165" d="M111.798,57.801c0-0.225,0.32-0.529,0.608-0.529c0.769,0,1.953,0.577,1.953,1.137
		c0,0.177-0.097,0.272-0.177,0.4c-0.063,0.096-0.112,0.256-0.112,0.608v1.873c1.649-0.08,1.761-0.177,2.161-0.528
		c1.104,0.24,1.729,0.544,1.729,1.057c0,0.24-0.256,0.305-0.576,0.305c-0.304,0-0.672-0.064-0.992-0.098
		c-0.272-0.047-0.849-0.063-1.456-0.063c-0.288,0-0.593,0-0.865,0.016c-0.016,0.543-0.016,1.184-0.016,1.76
		c0,3.09-1.265,5.844-5.426,7.492l-0.225-0.305c3.489-1.777,4.658-4.482,4.658-7.234V62.01c-1.297,0.064-3.233,0.24-4.562,0.432
		l0.079,2.162c0.032,0.527,0.097,1.088,0.097,1.633c0,0.352-0.176,0.607-0.48,0.607c-0.416,0-0.688-0.752-0.816-1.457
		c0.192-0.303,0.24-0.703,0.24-1.375c0-0.369,0-0.881-0.016-1.426c-0.913,0.145-1.44,0.24-1.649,0.416
		c-0.144,0.113-0.271,0.193-0.527,0.193c-0.641,0-1.521-0.85-1.521-1.506c0-0.223,0.16-0.56,0.385-0.56
		c0.271,0.673,0.704,0.864,1.473,0.864c0.416,0,1.584-0.096,1.824-0.129l-0.08-1.92c-0.063-0.944-0.08-1.265-1.072-1.265
		l-0.032-0.08c0.097-0.239,0.4-0.416,0.721-0.416c0.561,0,1.568,0.384,1.568,0.992c0,0.192-0.08,0.368-0.128,0.528
		c-0.048,0.129-0.08,0.48-0.096,0.769c0,0.384,0,0.832,0.016,1.312c1.601-0.143,3.554-0.352,4.578-0.416
		c0-2.208-0.032-3.137-0.416-3.361c-0.225-0.127-0.561-0.191-0.833-0.191L111.798,57.801z"/>
	<path fill="#536165" d="M128.103,57.656c0-0.128,0.256-0.288,0.528-0.288c0.736,0,1.984,0.784,1.984,1.409
		c0,0.304-0.512,0.191-0.815,0.304c-0.736,0.239-1.649,0.448-2.481,0.656c0.272,0.176,0.513,0.399,0.513,0.56
		s-0.064,0.257-0.112,0.32c-0.08,0.112-0.08,0.24-0.112,0.561c-0.048,0.545-0.064,1.264-0.112,1.889
		c1.024-0.064,2.081-0.145,2.722-0.176c0.672-0.049,0.977-0.031,1.44-0.465c0.72,0.064,1.841,0.592,1.841,0.945
		c0,0.352-0.256,0.383-0.704,0.383c-0.32,0-1.249-0.078-1.81-0.111c-0.368-0.031-0.8-0.047-1.296-0.047
		c-0.656,0-1.393,0.031-2.225,0.08c-0.353,3.201-1.537,5.809-5.331,7.426l-0.239-0.305c3.024-1.68,4.226-4.113,4.497-7.043
		c-0.64,0.049-3.825,0.338-4.546,0.625c-0.319,0.111-0.464,0.256-0.672,0.256c-0.656,0-1.473-0.736-1.473-1.279
		c0-0.258,0.096-0.561,0.272-0.674l0.08,0.018c0.063,0.367,0.24,0.543,0.464,0.672c0.208,0.096,0.721,0.096,1.265,0.096
		s2.657-0.16,4.658-0.32c0.063-0.688,0.079-1.424,0.079-2.097c0-0.56,0-0.944-0.176-1.104c-1.648,0.352-3.81,0.704-5.714,0.832
		l-0.08-0.367c3.009-0.449,6.082-1.217,7.571-1.793c0.607-0.24,0.704-0.289,0.704-0.545c0-0.16-0.288-0.336-0.704-0.4
		L128.103,57.656z"/>
	<path fill="#536165" d="M142.103,66.412c1.057-1.248,1.905-2.994,1.905-3.137c0-0.018,0-0.033-0.032-0.033
		c-0.096,0-2.577,0.641-4.002,1.057c0.385,1.762,0.864,3.73,1.232,4.994c0.112,0.432,0.32,0.656,0.32,0.865
		c0,0.703-0.144,1.072-0.592,1.072c-0.48,0-0.48-0.48-0.721-1.809c-0.096-0.625-0.544-2.898-1.024-4.914
		c-0.48,0.111-2.192,0.527-2.593,0.848c-0.192,0.16-0.272,0.256-0.496,0.256c-0.496,0-1.232-0.801-1.232-1.264
		c0-0.145,0.096-0.4,0.288-0.496c0,0.143,0.224,0.639,0.8,0.639c0.336,0,0.769-0.031,3.073-0.576
		c-0.208-0.896-0.416-1.76-0.576-2.209c-0.192-0.495-0.352-0.575-0.736-0.575c-0.08,0-0.368,0.048-0.432,0.048
		c0.08-0.368,0.399-0.624,0.784-0.624c0.784,0,1.553,0.224,1.553,0.528c0,0.144-0.08,0.224-0.112,0.352
		c-0.016,0.08-0.048,0.176-0.048,0.289c0,0.127,0.256,1.52,0.352,2c1.281-0.287,3.153-0.752,3.874-0.961
		c0.208-0.047,0.304-0.143,0.416-0.271c0.128-0.145,0.208-0.207,0.353-0.207c0.336,0,1.248,0.832,1.248,1.104
		c0,0.111-0.16,0.176-0.4,0.256c-0.224,0.049-0.319,0.129-0.496,0.385c-0.432,0.592-1.313,1.68-2.417,2.609L142.103,66.412z"/>
	<path fill="#536165" d="M148.5,58.904c1.825,0.24,4.53,1.201,4.53,2.658c0,0.367-0.256,0.623-0.624,0.623
		c-0.32,0-0.656-0.4-0.849-0.672c-0.513-0.721-1.696-1.744-3.186-2.289L148.5,58.904z M160.985,60.121
		c-2.033,4.498-5.634,7.604-9.588,9.492c-0.769,0.367-0.736,0.752-1.089,0.752c-0.592,0-1.76-0.943-1.76-1.809
		c0-0.225,0.191-0.512,0.399-0.656c0.097,0.416,0.465,0.928,1.057,0.928c1.169,0,7.587-3.264,10.612-8.931L160.985,60.121z"/>
	<path fill="#536165" d="M162.548,68.076c3.842-1.553,7.539-4.338,8.979-6.547c0.032-0.047,0.049-0.096,0.049-0.111
		c0-0.031-0.017-0.031-0.08-0.031c-0.064,0-4.274,0.367-5.314,0.783c-0.192,0.064-0.272,0.225-0.528,0.225
		c-0.608,0-1.345-0.945-1.345-1.425c0-0.336,0.225-0.593,0.353-0.593c0.144,0.865,0.944,0.865,1.44,0.865
		c1.072,0,4.002-0.272,5.267-0.433c0.256-0.032,0.352-0.097,0.464-0.192c0.16-0.127,0.304-0.271,0.416-0.271
		c0.256,0,1.265,0.752,1.265,1.023c0,0.178-0.176,0.225-0.433,0.289c-0.191,0.064-0.319,0.096-0.432,0.271
		c-0.753,0.945-1.745,1.904-2.913,2.834c0.16,0.145,0.319,0.367,0.319,0.527c0,0.176-0.079,0.385-0.111,0.592
		c-0.017,0.178-0.032,0.705-0.032,1.281c0,0.705,0.016,1.457,0.032,1.697c0.016,0.432,0.063,0.896,0.063,1.328
		c0,0.48-0.16,0.912-0.656,0.912c-0.399,0-0.512-0.832-0.704-1.439c0.256-0.273,0.368-0.498,0.368-2.93
		c0-0.609-0.016-0.752-0.063-1.408c-1.745,1.232-3.874,2.289-6.211,3.072L162.548,68.076z M166.39,57.416
		c2.721,0.176,4.69,1.345,4.69,2.145c0,0.305-0.24,0.561-0.593,0.561c-0.272,0-0.496-0.191-0.896-0.607
		c-0.656-0.721-1.904-1.426-3.297-1.745L166.39,57.416z M171.144,64.795c1.44,0.385,2.737,0.977,3.521,1.553
		c0.672,0.496,1.152,1.025,1.152,1.426c0,0.352-0.224,0.607-0.576,0.607c-0.24,0-0.641-0.465-1.04-0.912
		c-0.784-0.881-1.825-1.697-3.25-2.322L171.144,64.795z"/>
	<path fill="#536165" d="M179.988,60.666c0.112-0.24,0.48-0.496,0.832-0.496c0.656,0,1.81,0.512,1.81,0.977
		c0,0.191-0.145,0.256-0.225,0.4c-0.08,0.111-0.096,0.223-0.128,0.432c-0.416,3.408-1.505,6.498-4.273,8.676l-0.32-0.289
		c2.225-2.256,3.297-5.715,3.457-8.787c0-0.672-0.512-0.912-1.136-0.849L179.988,60.666z M192.121,62.521
		c-1.072,3.426-3.073,5.41-5.506,6.756c-0.305,0.176-0.48,0.336-0.608,0.496c-0.192,0.24-0.288,0.465-0.464,0.465
		c-0.336,0-1.041-0.754-1.041-1.201c0-0.209,0.145-0.369,0.24-0.545c0.064-0.143,0.097-0.416,0.112-0.879
		c0.032-0.881,0.048-2.609,0.048-4.275c0-1.439-0.016-2.832-0.032-3.568c-0.016-0.656-0.048-1.152-0.384-1.297
		c-0.225-0.111-0.528-0.16-0.832-0.128l-0.017-0.017c0.064-0.287,0.368-0.576,0.864-0.576c0.656,0,1.809,0.449,1.809,1.009
		c0,0.208-0.111,0.32-0.224,0.496c-0.128,0.16-0.192,0.4-0.208,0.769c-0.096,1.553-0.112,4.178-0.112,6.531v1.68
		c0.017,0.08,0.032,0.113,0.097,0.113c0.271,0,4.193-1.842,5.89-5.988L192.121,62.521z"/>
</g>
</svg>
